<svg xmlns="http://www.w3.org/2000/svg" xmlns:xlink="http://www.w3.org/1999/xlink" id="Calque_2" x="0px" y="0px" style="enable-background:new 0 0 116 50;" viewBox="19.74 0.21 48.59 49.66">
<style type="text/css">
	.st0{fill:#FFBF1A;}
	.st1{fill:#10698D;}
	.st2{fill:#53D3D3;}
	.st3{fill:#0F9DC8;}
</style>
<g>
	<path class="st0" d="M43.74,5.31c6.26,0,11.97,2.36,16.29,6.24l3.38-3.81C58.2,3.06,51.3,0.22,43.74,0.21V5.31z"/>
	<path id="bas_du_O_2_" class="st1" d="M55.86,37.41c-3.58,0-7.74-1.01-12.55-3.58c-7.27-3.88-13.71-5.04-19.19-3.46   c0.07,10.77,8.85,19.5,19.64,19.5c8.78,0,16.21-5.79,18.72-13.75C60.54,36.92,58.35,37.41,55.86,37.41z"/>
	<path class="st2" d="M43.67,27.79c-5.56-2.96-15.65-6.25-23.93,2.46c2.86-1.59,5.98-2.38,9.35-2.38c4.57,0,9.61,1.46,15.07,4.37   c9.9,5.28,18.01,4.4,24.17-2.6C61.55,33.54,53.28,32.92,43.67,27.79z"/>
	<path class="st3" d="M43.72,10.56c-8.77,0-16.2,5.79-18.71,13.75c2.22-0.96,4.45-1.39,6.6-1.46c2.48-4.09,6.98-6.82,12.11-6.82   c7.82,0,14.16,6.34,14.16,14.16c0,0.05,0,0.09,0,0.14c1.92,0.08,3.74-0.11,5.47-0.57C63.12,19.13,54.4,10.56,43.72,10.56z"/>
</g>
</svg>